<?xml version="1.0" encoding="UTF-8" standalone="no"?>
<!-- Created with Inkscape (http://www.inkscape.org/) -->

<svg
   width="512"
   height="512"
   viewBox="0 0 512 512"
   version="1.1"
   id="svg1"
   xml:space="preserve"
   inkscape:version="1.4.2 (f4327f4, 2025-05-13)"
   sodipodi:docname="512lOGO.svg"
   inkscape:export-filename="..\Desktop\logo.svg"
   inkscape:export-xdpi="9.000001"
   inkscape:export-ydpi="9.000001"
   xmlns:inkscape="http://www.inkscape.org/namespaces/inkscape"
   xmlns:sodipodi="http://sodipodi.sourceforge.net/DTD/sodipodi-0.dtd"
   xmlns="http://www.w3.org/2000/svg"
   xmlns:svg="http://www.w3.org/2000/svg"><sodipodi:namedview
     id="namedview1"
     pagecolor="#ffffff"
     bordercolor="#000000"
     borderopacity="0.25"
     inkscape:showpageshadow="2"
     inkscape:pageopacity="0.0"
     inkscape:pagecheckerboard="0"
     inkscape:deskcolor="#d1d1d1"
     inkscape:document-units="px"
     inkscape:zoom="1.1145218"
     inkscape:cx="180.34641"
     inkscape:cy="253.47194"
     inkscape:window-width="1920"
     inkscape:window-height="1009"
     inkscape:window-x="-8"
     inkscape:window-y="-8"
     inkscape:window-maximized="1"
     inkscape:current-layer="layer1"
     showgrid="false"
     inkscape:export-bgcolor="#ffffffff"><inkscape:page
       x="0"
       y="0"
       width="512"
       height="512"
       id="page2"
       margin="0"
       bleed="0" /></sodipodi:namedview><defs
     id="defs1" /><g
     inkscape:label="Katman 1"
     inkscape:groupmode="layer"
     id="layer1"><path
       style="display:inline;fill:#000000"
       d="M 0.35811651,256.63321 V 0.63320941 H 256.35812 h 256 V 256.63321 v 256 h -256 H 0.35811651 Z m 245.00000349,96.125 c 0,-3.50987 -0.28411,-3.93182 -3.01512,-4.47802 l -3.01511,-0.60303 5.8478,-5.93929 c 5.89394,-5.98616 12.38172,-16.84613 13.65346,-22.85466 0.37833,-1.7875 1.06637,-3.25 1.52897,-3.25 0.4626,0 1.15063,1.4625 1.52897,3.25 1.27173,6.00853 7.75952,16.8685 13.65346,22.85466 l 5.84779,5.93929 -3.01511,0.60303 c -2.73101,0.5462 -3.01511,0.96815 -3.01511,4.47802 v 3.875 h 38 38 v -3.875 c 0,-3.50987 -0.28411,-3.93182 -3.01512,-4.47802 l -3.01511,-0.60303 5.8478,-5.93929 c 6.81183,-6.91842 12.25209,-16.75755 14.64965,-26.49504 1.7959,-7.29393 1.39945,-8.55802 -2.6954,-8.59431 -1.60487,-0.0142 -1.74758,-2.95063 -2,-41.15485 l -0.27182,-41.13955 2.75,-0.95828 c 3.46961,-1.20904 3.44488,-2.47426 -0.19165,-9.80373 -7.11727,-14.34494 -18.16378,-25.4095 -32.76852,-32.82205 -3.66264,-1.85896 -5.91113,-2.13685 -17.28983,-2.13685 -14.4646,0 -15.85528,0.41459 -27,8.04928 -9.90352,6.7844 -20.01301,18.90433 -23.93988,28.70072 -0.71652,1.7875 -1.64358,3.25 -2.06012,3.25 -0.41655,0 -1.3436,-1.4625 -2.06012,-3.25 -3.92687,-9.79639 -14.03637,-21.91632 -23.93988,-28.70072 -11.14473,-7.63469 -12.53541,-8.04928 -27,-8.04928 -11.37871,0 -13.6272,0.27789 -17.28984,2.13685 -14.60474,7.41255 -25.65125,18.47711 -32.76852,32.82205 -3.63652,7.32947 -3.66126,8.59469 -0.19164,9.80373 l 2.75,0.95828 -0.27182,41.13955 c -0.25243,38.20422 -0.39513,41.14063 -2,41.15485 -4.09485,0.0363 -4.49131,1.30038 -2.6954,8.59431 2.39755,9.73749 7.83781,19.57662 14.64965,26.49504 l 5.84779,5.93929 -3.01511,0.60303 c -2.73101,0.5462 -3.01511,0.96815 -3.01511,4.47802 v 3.875 h 38 38 z m -40.85381,-18.875 c -2.46505,-7.08908 -9.17716,-18.06492 -13.56035,-22.17431 l -2.58584,-2.42432 V 290.4589 271.63321 h 19 19 v 18.82569 18.82568 l -2.58584,2.42432 c -4.3832,4.10939 -11.0953,15.08523 -13.56036,22.17431 -1.29094,3.7125 -2.57515,6.75 -2.8538,6.75 -0.27866,0 -1.56287,-3.0375 -2.85381,-6.75 z m 106,0 c -2.46505,-7.08908 -9.17716,-18.06492 -13.56035,-22.17431 l -2.58584,-2.42432 V 290.4589 271.63321 h 19 19 v 18.82569 18.82568 l -2.58584,2.42432 c -4.3832,4.10939 -11.0953,15.08523 -13.56036,22.17431 -1.29094,3.7125 -2.57515,6.75 -2.8538,6.75 -0.27866,0 -1.56287,-3.0375 -2.85381,-6.75 z m -55.14619,-67.75 c 0,-22.275 -0.0339,-40.8375 -0.0753,-41.25 -0.14008,-1.39464 5.53636,-2.40817 8.07534,-1.44185 l 2.5,0.95149 -0.27182,41.12018 -0.27183,41.12018 h -4.97817 -4.97818 z m -62.30565,-10.23731 -4.80565,-0.37682 0.30565,-20.69293 c 0.28851,-19.5325 0.43974,-20.95527 2.69685,-25.37075 3.26698,-6.39106 10.19169,-15.01972 13.4352,-16.74117 3.63744,-1.93053 6.72991,-0.22261 12.206,6.74117 8.64195,10.98972 8.92919,12.08253 9.27247,35.27808 l 0.30487,20.60027 -6.80487,0.64262 c -6.85961,0.64779 -17.74248,0.61488 -26.61052,-0.0805 z m 106,0 -4.80565,-0.37682 0.30565,-20.69293 c 0.28851,-19.5325 0.43974,-20.95527 2.69685,-25.37075 3.26698,-6.39106 10.19169,-15.01972 13.4352,-16.74117 3.63744,-1.93053 6.72991,-0.22261 12.206,6.74117 8.64195,10.98972 8.92919,12.08253 9.27247,35.27808 l 0.30487,20.60027 -6.80487,0.64262 c -6.85961,0.64779 -17.74248,0.61488 -26.61052,-0.0805 z"
       id="path1" /></g></svg>
